# xmcd
#
# Track frame offsets:
# 150
# 11521
# 24746
# 36488
# 47984
# 60489
# 71644
# 84283
# 96183
# 107422
# 119633
# 130775
# 142330
# 154317
# 165703
# 177809
# 191145
# 204336
# 216479
# 229702
# 243051
# 254968
# 268326
#
# Disc length: 3735 seconds
#
#
# Revision: 0
# Processed by: cddbd v1.5.2PL0 Copyright (c) Steve Scherf et al.
# Submitted via: FreeRIP 2.944 
#
DISCID=5c0e9517
DTITLE=Various Artist - Rare West Coast Jump 'n' Jive 1947, 1948
DYEAR=1900
DGENRE=Jump Blues
TTITLE0=Rainin' Blues
TTITLE1=San Quentin Bait
TTITLE2=Old Time Blues
TTITLE3=Crack Up
TTITLE4=Song of the Share Cropper
TTITLE5=You Sure Gotta Lot Of Nerve
TTITLE6=Singin' And Cryin' Blues
TTITLE7=You Fine And Healthy Thing
TTITLE8=17 Million $ Baby
TTITLE9=Ain't No Better For You
TTITLE10=Boogie Woogie Baby
TTITLE11=Going To L.A.
TTITLE12=I Know What It's All About
TTITLE13=Hey! Hey! Pretty Mama
TTITLE14=The Traffic Is Terrific
TTITLE15=How I Miss Old Memphis Tenn
TTITLE16=Lonely Blues
TTITLE17=Troubles Goodbye
TTITLE18=I Can't Stop It
TTITLE19=That Song Is Gone
TTITLE20=Cadilac Boogie
TTITLE21=Teardrop Blues
TTITLE22=Answer To Teardrop Blues
EXTD=
EXTT0=
EXTT1=
EXTT2=
EXTT3=
EXTT4=
EXTT5=
EXTT6=
EXTT7=
EXTT8=
EXTT9=
EXTT10=
EXTT11=
EXTT12=
EXTT13=
EXTT14=
EXTT15=
EXTT16=
EXTT17=
EXTT18=
EXTT19=
EXTT20=
EXTT21=
EXTT22=
PLAYORDER=
